# AST/ASF file generated using VICON BodyLanguage
# -----------------------------------------------
:version 1.10
:name VICON
:units
  mass 1.0
  length 0.45
  angle deg
:documentation
   .ast/.asf automatically generated from VICON data using
   VICON BodyBuilder and BodyLanguage model FoxedUp or BRILLIANT.MOD
:root
   order TX TY TZ RX RY RZ
   axis XYZ
   position 0 0 0  
   orientation 0 -0 0 
:bonedata
  begin
     id 1 
     name lhipjoint
     direction 0.515797 -0.759363 0.396637 
     length 2.47888 
     axis 0 -0 0  XYZ
  end
  begin
     id 2 
     name lfemur
     direction 0.34202 -0.939693 0  
     length 6.81885  
     axis 0 -0 20  XYZ
    dof rx ry rz
    limits (-160.0 20.0)
           (-70.0 70.0)
           (-60.0 70.0)
  end
  begin
     id 3 
     name ltibia
     direction 0.342037 -0.939687 0   
     length 7.89258   
     axis 0 -0 20   XYZ
    dof rx
    limits (-10.0 170.0)
  end
  begin
     id 4 
     name lfoot
     direction 0.173497 -0.476678 0.861787   
     length 2.51543   
     axis -90 -1.13533e-015 20   XYZ
    dof rx rz
    limits (-45.0 90.0)
           (-70.0 20.0)
  end
  begin
     id 5 
     name ltoes
     direction 1.53564e-011 -4.21897e-011 1   
     length 1.21388   
     axis -90 -1.13533e-015 20   XYZ
    dof rx
    limits (-90.0 20.0)
  end
  begin
     id 6 
     name rhipjoint
     direction -0.489454 -0.772941 0.403729   
     length 2.43534  
     axis 0 -0 0  XYZ 
  end
  begin
     id 7 
     name rfemur
     direction -0.34202 -0.939693 0   
     length 7.10357   
     axis 0 -0 -20   XYZ
    dof rx ry rz
    limits (-160.0 20.0)
           (-70.0 70.0)
           (-70.0 60.0)
  end
  begin
     id 8 
     name rtibia
     direction -0.34202 -0.939693 0   
     length 9.16127   
     axis 0 -0 -20   XYZ
    dof rx
    limits (-10.0 170.0)
 end
 begin
     id 9 
     name rfoot
     direction -0.270974 -0.748671 0.605033   
     length 1.74894  
     axis -90 1.13533e-015 -20   XYZ
    dof rx rz
    limits (-45.0 90.0)
           (-20.0 70.0)
  end
  begin
     id 10 
     name rtoes
     direction -1.53557e-011 -4.21759e-011 1   
     length 0.787585   
     axis -90 1.13533e-015 -20   XYZ
    dof rx
    limits (-90.0 20.0)
  end
  begin
     id 11 
     name lowerback
     direction -0.0140249 0.999561 0.0260968   
     length 2.16963   
     axis 0 -0 0   XYZ
    dof rx ry rz
    limits (-20.0 45.0)
           (-30.0 30.0)
           (-30.0 30.0)
  end
  begin
     id 12 
     name upperback
     direction 0.00860018 0.999959 -0.002711   
     length 2.1726   
     axis 0 -0 0   XYZ
    dof rx ry rz
    limits (-20.0 45.0)
           (-30.0 30.0)
           (-30.0 30.0)
  end
  begin
     id 13 
     name thorax
     direction 0.015211 0.999782 -0.0143191   
     length 2.17061   
     axis 0 -0 0   XYZ
    dof rx ry rz
    limits (-20.0 45.0)
           (-30.0 30.0)
           (-30.0 30.0)
  end
  begin
     id 14 
     name lowerneck
     direction -0.0140143 0.999447 0.030145   
     length 2.26749   
     axis 0 -0 0   XYZ
    dof rx ry rz
    limits (-20.0 45.0)
           (-30.0 30.0)
           (-30.0 30.0)
  end
  begin
     id 15 
     name upperneck
     direction 0.118062 0.961438 -0.248392   
     length 2.22728   
     axis 0 -0 0   XYZ
    dof rx ry rz
    limits (-20.0 45.0)
           (-30.0 30.0)
           (-30.0 30.0)
  end
  begin
     id 16
     name head
     direction 0.0431885 0.9954 -0.085514  
     length 2.28786  
     axis 0 -0 0   XYZ
    dof rx ry rz
    limits (-20.0 45.0)
           (-30.0 30.0)
           (-30.0 30.0)
  end
  begin
     id 17 
     name lclavicle
     direction 0.912126 0.409548 0.0172323  
     length 4.31571  
     axis 0 -0 0   XYZ
    dof ry rz
    limits (-20.0 10.0)
           (0.0 20.0)
  end
  begin
     id 18 
     name lhumerus
     direction 1 -4.48977e-011 1.93091e-027   
     length 5.13658   
     axis 180 -30 -90   XYZ
    dof rx ry rz
    limits (-60.0 90.0)
           (-90.0 90.0)
           (-90.0 90.0)
  end
  begin
     id 19
     name lradius
     direction 1 -4.48916e-011 6.84018e-027   
     length 3.22473   
     axis 180 -30 -90   XYZ
    dof rx
    limits (-10.0 170.0)
  end
  begin
     id 20
     name lwrist
     direction 1 -4.48987e-011 7.01981e-027   
     length 1.61236   
     axis -4.37994e-015 90 90   XYZ
    dof ry
    limits (-180.0 0.0)
 end
  begin
     id 21 
     name lhand
     direction 1 -4.49037e-011 1.40335e-026   
     length 0.936406   
     axis -8.96029e-015 90 90   XYZ
    dof rx rz
    limits (-90.0 90.0)
           (-45.0 45.0)
  end
  begin
     id 22 
     name lfingers
     direction 1 -4.48886e-011 2.8104e-026   
     length 0.754955   
     axis -1.79203e-014 90 90   XYZ
    dof rx
    limits (0.0 90.0)
  end
  begin
     id 23
     name lthumb
     direction 0.707107 -6.34937e-011 0.707107   
     length 1.08397   
     axis -90 45 -4.48555e-014   XYZ
    dof rx rz
    limits (-45.0 45.0)
           (-45.0 45.0)
  end
  begin
     id 24 
     name rclavicle
     direction -0.947962 0.317997 0.0156638   
     length 4.86918  
     axis 0 -0 0   XYZ 
    dof ry rz
    limits (-10.0 20.0)
           (-20.0 0.0)
  end
  begin
     id 25 
     name rhumerus
     direction -1 -4.48951e-011 2.80534e-018  
     length 5.60911   
     axis 180 30 90   XYZ
    dof rx ry rz
    limits (-90.0 60.0)
           (-90.0 90.0)
           (-90.0 90.0)
  end
  begin
     id 26 
     name rradius
     direction -1 -4.4898e-011 2.11315e-027   
     length 3.38704   
     axis 180 30 90   XYZ
    dof rx
    limits (-10.0 170.0)
  end
  begin
     id 27 
     name rwrist
     direction -1 -4.48933e-011 7.02314e-027   
     length 1.69352   
     axis -4.37994e-015 -90 -90   XYZ
    dof ry
    limits (-180.0 0.0)
  end
  begin
     id 28
     name rhand
     direction -1 -4.48937e-011 1.40458e-026   
     length 0.755878   
     axis -8.96029e-015 -90 -90   XYZ
    dof rx rz
    limits (-90.0 90.0)
           (-45.0 45.0)
  end
  begin
     id 29
     name rfingers
     direction -1 -4.4901e-011 2.80737e-026   
     length 0.609409   
     axis -1.79203e-014 -90 -90   XYZ
    dof rx
    limits (0.0 90.0)
  end
  begin
     id 30
     name rthumb
     direction -0.707107 -6.34968e-011 0.707107   
     length 0.874992   
     axis -90 -45 4.48555e-014   XYZ
    dof rx rz
    limits (-45.0 45.0)
           (-45.0 45.0)
  end
:hierarchy
  begin
    root lhipjoint rhipjoint lowerback
    lhipjoint lfemur
    lfemur ltibia
    ltibia lfoot
    lfoot ltoes
    rhipjoint rfemur
    rfemur rtibia
    rtibia rfoot
    rfoot rtoes
    lowerback upperback
    upperback thorax
    thorax lowerneck lclavicle rclavicle
    lowerneck upperneck
    upperneck head
    lclavicle lhumerus
    lhumerus lradius
    lradius lwrist
    lwrist lhand lthumb
    lhand lfingers
    rclavicle rhumerus
    rhumerus rradius
    rradius rwrist
    rwrist rhand rthumb
    rhand rfingers
  end

#!OML:ASF C:\ViconDB\ViconDB\414\Spring2016\041811\Spring2016.ASF
:FULLY-SPECIFIED
:DEGREES
61
root 9.4472 18.1556 1.80956 -178.547 -2.48709 -179.661
lowerback 2.13331 1.78513 -5.28949
upperback 1.1323 2.24627 0.0450803
thorax -0.236728 1.09087 2.95387
lowerneck -11.0846 1.81569 -3.067
upperneck 19.416 0.242054 9.92899
head 7.77039 0.503517 3.78892
rclavicle 1.35671e-014 1.70955e-014
rhumerus -37.9541 -17.7605 -86.6221
rradius 33.8192
rwrist 41.0783
rhand -36.4775 -14.6937
rfingers 7.12502
rthumb -9.57057 -44.4563
lclavicle 1.35671e-014 1.70955e-014
lhumerus -38.0586 -9.37246 96.0504
lradius 29.6035
lwrist -27.9933
lhand -26.694 15.5936
lfingers 7.12502
lthumb -0.12455 45.5733
rfemur 157.245 23.9784 -169.746
rtibia 42.1922
rfoot -3.69434 -62.7467
rtoes 4.6118e-014
lfemur -3.71883 -7.8628 -23.3245
ltibia 22.0411
lfoot -21.4172 4.39254
ltoes 7.95139e-015
62
root 9.44496 18.1682 1.78863 -178.61 -2.58411 -179.647
lowerback 2.34658 1.69537 -5.21217
upperback 1.14008 2.11318 0.0116315
thorax -0.332298 1.02602 2.87393
lowerneck -11.0382 1.88033 -2.91066
upperneck 19.478 0.3201 9.78356
head 7.77866 0.536241 3.72135
rclavicle -3.1731e-014 -1.55052e-014
rhumerus -37.8413 -17.4683 -86.6994
rradius 33.7998
rwrist 40.6269
rhand -36.5054 -14.7777
rfingers 7.12502
rthumb -9.59746 -44.5391
lclavicle -3.1731e-014 -1.55052e-014
lhumerus -38.2372 -9.70963 96.1728
lradius 29.9116
lwrist -27.3474
lhand -26.5715 15.6527
lfingers 7.12502
lthumb -0.00621654 45.6324
rfemur 157.253 23.9302 -169.551
rtibia 42.9306
rfoot -3.18493 -63.0876
rtoes -1.74931e-014
lfemur -3.22784 -8.00445 -23.3445
ltibia 21.3984
lfoot -21.1872 4.50186
ltoes 3.61291e-014
63
root 9.43982 18.1779 1.76407 -178.639 -2.62774 -179.581
lowerback 2.45156 1.62928 -5.0658
upperback 1.16914 2.0216 0.00157493
thorax -0.347932 0.979988 2.78217
lowerneck -11.0764 1.93453 -2.96101
upperneck 19.5988 0.364859 9.87321
head 7.82114 0.559963 3.76768
rclavicle -1.43373e-014 2.0276e-014
rhumerus -37.7978 -17.5229 -86.6119
rradius 33.8088
rwrist 40.8859
rhand -36.8116 -14.7322
rfingers 7.12502
rthumb -9.8929 -44.4798
lclavicle -1.43373e-014 2.0276e-014
lhumerus -38.3734 -10.2237 96.3698
lradius 30.0904
lwrist -27.2375
lhand -26.7286 15.579
lfingers 7.12502
lthumb -0.157962 45.5587
rfemur 157.518 23.9448 -169.256
rtibia 43.4285
rfoot -2.28738 -63.0858
rtoes 1.1609e-013
lfemur -2.78283 -8.26994 -23.34
ltibia 20.8083
lfoot -21.0554 4.76399
ltoes -2.3059e-014
64
root 9.43647 18.1882 1.73749 -178.649 -2.76552 -179.482
lowerback 2.55267 1.53678 -5.00081
upperback 1.16095 1.89591 0.0949599
thorax -0.403253 0.919501 2.84331
lowerneck -10.9725 1.9615 -2.94775
upperneck 19.6109 0.439297 9.69091
head 7.80146 0.578252 3.70977
rclavicle -2.8948e-014 -1.07344e-014
rhumerus -37.7752 -17.3888 -86.4384
rradius 33.7598
rwrist 40.9353
rhand -36.7953 -14.8547
rfingers 7.12502
rthumb -9.87715 -44.603
lclavicle -2.8948e-014 -1.07344e-014
lhumerus -38.5295 -10.6107 96.6777
lradius 30.3147
lwrist -26.7144
lhand -26.6797 15.6164
lfingers 7.12502
lthumb -0.11076 45.5962
rfemur 158.002 24.129 -168.891
rtibia 43.6845
rfoot -1.88738 -62.8992
rtoes -4.92986e-014
lfemur -2.38817 -8.48253 -23.2701
ltibia 20.2559
lfoot -20.9426 4.89673
ltoes -2.73826e-014
65
root 9.43456 18.1997 1.7087 -178.671 -2.94351 -179.412
lowerback 2.68001 1.45033 -4.82714
upperback 1.1674 1.77639 0.0532502
thorax -0.451298 0.860752 2.70411
lowerneck -10.9634 2.00192 -2.78441
upperneck 19.6886 0.46144 9.62132
head 7.82599 0.591458 3.66214
rclavicle 1.19271e-014 -4.09496e-014
rhumerus -37.6891 -17.3159 -86.4101
rradius 33.8046
rwrist 40.8206
rhand -36.5749 -14.3923
rfingers 7.12502
rthumb -9.66456 -44.1506
lclavicle 1.19271e-014 -4.09496e-014
lhumerus -38.5456 -10.9709 96.7123
lradius 30.3159
lwrist -27.0029
lhand -26.6802 15.5737
lfingers 7.12502
lthumb -0.111181 45.5534
rfemur 158.658 24.4198 -168.537
rtibia 43.728
rfoot -1.41788 -62.6696
rtoes -4.13472e-014
lfemur -1.98166 -8.68124 -23.2213
ltibia 19.7155
lfoot -20.7579 4.86076
ltoes -1.76918e-014
66
root 9.42962 18.2099 1.67641 -178.647 -3.02815 -179.284
lowerback 2.76413 1.38239 -4.63004
upperback 1.12253 1.68769 0.0929386
thorax -0.532904 0.820464 2.63506
lowerneck -10.9862 2.04102 -2.85804
upperneck 19.8811 0.473243 9.72558
head 7.89129 0.596641 3.71564
rclavicle 1.17283e-014 -1.03368e-014
rhumerus -37.8512 -17.5833 -86.1904
rradius 33.8933
rwrist 41.2048
rhand -36.4821 -14.3689
rfingers 7.12502
rthumb -9.57497 -44.1313
lclavicle 1.17283e-014 -1.03368e-014
lhumerus -38.6153 -11.1874 96.7991
lradius 30.3511
lwrist -27.1814
lhand -26.4741 15.6712
lfingers 7.12502
lthumb 0.0877958 45.651
rfemur 159.613 24.651 -168.085
rtibia 43.5372
rfoot -1.41299 -62.1753
rtoes 1.03368e-013
lfemur -1.63818 -8.8137 -23.1223
ltibia 19.2106
lfoot -20.6256 5.03965
ltoes 3.47873e-016
67
root 9.43042 18.2213 1.64504 -178.63 -3.24599 -179.216
lowerback 2.85317 1.30561 -4.52971
upperback 1.10906 1.58316 0.0905681
thorax -0.585572 0.769876 2.57807
lowerneck -10.9395 2.02344 -2.80926
upperneck 19.8993 0.415463 9.7769
head 7.89325 0.572618 3.71836
rclavicle 2.61153e-014 -1.31198e-014
rhumerus -37.8137 -17.5699 -86.0828
rradius 33.8868
rwrist 41.1858
rhand -36.3973 -14.3811
rfingers 7.12502
rthumb -9.49317 -44.1473
lclavicle 2.61153e-014 -1.31198e-014
lhumerus -38.6181 -11.6674 96.9503
lradius 30.3405
lwrist -27.0603
lhand -26.5656 15.4662
lfingers 7.12502
lthumb -0.000559559 45.446
rfemur 160.696 24.9766 -167.661
rtibia 43.1665
rfoot -1.62051 -61.5461
rtoes 1.97194e-013
lfemur -1.252 -9.21328 -23.0833
ltibia 18.6582
lfoot -20.5364 5.26424
ltoes -2.15681e-014
68
root 9.42709 18.227 1.61039 -178.626 -3.39479 -179.149
lowerback 2.96647 1.19979 -4.4053
upperback 1.08586 1.44064 0.131909
thorax -0.659771 0.701258 2.55367
lowerneck -10.9678 2.09408 -2.79698
upperneck 20.008 0.496124 9.77085
head 7.92859 0.61041 3.72501
rclavicle -9.93923e-017 2.18663e-014
rhumerus -37.9111 -17.4077 -85.9958
rradius 33.9153
rwrist 41.163
rhand -36.6123 -14.579
rfingers 7.12502
rthumb -9.70061 -44.3356
lclavicle -9.93923e-017 2.18663e-014
lhumerus -38.57 -11.5917 96.9548
lradius 30.2628
lwrist -27.3837
lhand -26.5102 15.3847
lfingers 7.12502
lthumb 0.0529878 45.3644
rfemur 161.948 25.3254 -167.223
rtibia 42.5799
rfoot -1.80545 -60.8766
rtoes 1.145e-013
lfemur -0.875227 -9.33914 -23.0434
ltibia 18.1662
lfoot -20.4379 5.3072
ltoes -4.31363e-014
69
root 9.42727 18.2369 1.57341 -178.614 -3.5421 -179.083
lowerback 2.99125 1.14661 -4.38619
upperback 1.10491 1.37093 0.221472
thorax -0.65039 0.666153 2.63761
lowerneck -11.0103 2.11857 -2.76411
upperneck 20.0863 0.541627 9.66346
head 7.95997 0.627053 3.69053
rclavicle -4.96962e-017 3.97569e-016
rhumerus -37.9336 -17.4183 -85.7182
rradius 33.909
rwrist 41.3913
rhand -36.4316 -14.4144
rfingers 7.12502
rthumb -9.52621 -44.1791
lclavicle -4.96962e-017 3.97569e-016
lhumerus -38.4117 -11.7494 97.0941
lradius 30.2299
lwrist -27.3466
lhand -26.3199 15.5175
lfingers 7.12502
lthumb 0.236811 45.4971
rfemur 163.362 25.6346 -166.748
rtibia 41.8465
rfoot -2.97205 -60.0926
rtoes 9.38264e-014
lfemur -0.484107 -9.45845 -22.9838
ltibia 17.6224
lfoot -20.246 5.36192
ltoes -6.01324e-015
70
root 9.42546 18.2413 1.5352 -178.614 -3.61934 -178.935
lowerback 3.02736 1.11428 -4.15678
upperback 1.12326 1.33334 0.240823
thorax -0.64426 0.647189 2.52983
lowerneck -11.0297 2.14076 -2.78778
upperneck 20.0805 0.535763 9.82741
head 7.96092 0.635681 3.7492
rclavicle -2.34814e-014 3.1408e-014
rhumerus -37.9498 -17.5029 -85.5507
rradius 33.85
rwrist 41.6406
rhand -36.4973 -14.293
rfingers 7.12502
rthumb -9.58964 -44.0548
lclavicle -2.34814e-014 3.1408e-014
lhumerus -38.2495 -11.978 97.1048
lradius 30.195
lwrist -27.346
lhand -26.2477 15.317
lfingers 7.12502
lthumb 0.306537 45.2965
rfemur 164.949 25.9573 -166.131
rtibia 40.9441
rfoot -3.8384 -59.3252
rtoes 6.67916e-014
lfemur -0.0843735 -9.5042 -22.8388
ltibia 17.1056
lfoot -20.0982 5.37919
ltoes -8.29926e-015
71
root 9.4248 18.2502 1.49453 -178.615 -3.77496 -178.851
lowerback 3.08431 1.0498 -4.10359
upperback 1.12634 1.24803 0.339465
thorax -0.667646 0.605328 2.60389
lowerneck -11.0293 2.12534 -2.88665
upperneck 20.0887 0.535182 9.83022
head 7.96229 0.629204 3.76729
rclavicle 1.25234e-014 -2.3059e-014
rhumerus -37.9173 -17.2184 -85.2843
rradius 33.7877
rwrist 41.6794
rhand -36.355 -14.2418
rfingers 7.12502
rthumb -9.45231 -44.0098
lclavicle 1.25234e-014 -2.3059e-014
lhumerus -38.1808 -11.827 97.1749
lradius 30.2393
lwrist -27.5071
lhand -26.0988 15.2688
lfingers 7.12502
lthumb 0.450368 45.2481
rfemur 166.62 26.4964 -165.552
rtibia 39.9513
rfoot -5.76 -58.5286
rtoes -1.27222e-013
lfemur 0.34751 -9.58992 -22.7544
ltibia 16.5338
lfoot -19.9247 5.37994
ltoes 4.22417e-016
72
root 9.42409 18.2554 1.45096 -178.648 -3.89528 -178.815
lowerback 3.1766 1.00948 -4.00652
upperback 1.12633 1.19256 0.337483
thorax -0.713198 0.578413 2.54804
lowerneck -10.9682 2.13405 -2.8205
upperneck 20.0384 0.525213 9.87032
head 7.93575 0.62961 3.76588
rclavicle -2.31087e-015 1.07344e-014
rhumerus -37.9474 -17.119 -85.1602
rradius 33.6716
rwrist 41.5302
rhand -36.0521 -14.0485
rfingers 7.12502
rthumb -9.1601 -43.8296
lclavicle -2.31087e-015 1.07344e-014
lhumerus -38.1302 -12.0046 97.1492
lradius 30.3181
lwrist -27.5654
lhand -25.9144 15.1469
lfingers 7.12502
lthumb 0.628421 45.1257
rfemur 168.338 27.1261 -164.973
rtibia 38.8567
rfoot -7.40135 -57.5628
rtoes 5.40694e-014
lfemur 0.823429 -9.69631 -22.7457
ltibia 16.0008
lfoot -19.8135 5.42956
ltoes -1.87355e-014
73
root 9.42423 18.2598 1.404 -178.655 -3.96275 -178.793
lowerback 3.16624 0.99567 -3.95628
upperback 1.15272 1.17637 0.357851
thorax -0.678548 0.569044 2.54189
lowerneck -10.9307 2.1122 -2.88755
upperneck 19.9357 0.489079 10.0048
head 7.8961 0.61821 3.81572
rclavicle 5.96354e-016 1.43125e-014
rhumerus -38.126 -17.3753 -84.9089
rradius 33.6632
rwrist 42.0064
rhand -35.9145 -13.7874
rfingers 7.12502
rthumb -9.02731 -43.5742
lclavicle 5.96354e-016 1.43125e-014
lhumerus -37.9882 -12.1707 97.1591
lradius 30.3786
lwrist -27.5235
lhand -25.769 15.1471
lfingers 7.12502
lthumb 0.768847 45.1255
rfemur 170.164 27.8704 -164.317
rtibia 37.7248
rfoot -9.42465 -56.6763
rtoes 4.77083e-014
lfemur 1.298 -9.69871 -22.7367
ltibia 15.4266
lfoot -19.6655 5.43279
ltoes -3.83406e-014
74
root 9.42331 18.2646 1.3567 -178.65 -4.06156 -178.67
lowerback 3.1783 0.964737 -3.76904
upperback 1.15902 1.14137 0.406483
thorax -0.673744 0.551733 2.48809
lowerneck -10.9277 2.10837 -2.88104
upperneck 19.9348 0.480805 10.0096
head 7.89593 0.614958 3.81535
rclavicle -3.37934e-015 -4.37326e-015
rhumerus -38.2035 -17.5351 -84.6214
rradius 33.539
rwrist 42.3095
rhand -36.0978 -13.8481
rfingers 7.12502
rthumb -9.20413 -43.6272
lclavicle -3.37934e-015 -4.37326e-015
lhumerus -37.871 -12.0203 97.1318
lradius 30.4622
lwrist -27.5958
lhand -25.618 15.3942
lfingers 7.12502
lthumb 0.914666 45.372
rfemur 172.094 28.7814 -163.45
rtibia 36.5604
rfoot -11.96 -55.8023
rtoes 3.26007e-014
lfemur 1.74102 -9.73587 -22.6149
ltibia 14.8618
lfoot -19.5338 5.53056
ltoes -3.73715e-014
